<mxfile host="app.diagrams.net" agent="Mozilla/5.0 (Windows NT 10.0; Win64; x64) AppleWebKit/537.36 (KHTML, like Gecko) Chrome/132.0.0.0 Safari/537.36 Edg/132.0.0.0" version="26.0.11">
  <diagram name="Page-1" id="a1UYQKwkdaG06sgzA5iz">
    <mxGraphModel dx="1288" dy="742" grid="1" gridSize="10" guides="1" tooltips="1" connect="1" arrows="1" fold="1" page="1" pageScale="1" pageWidth="1169" pageHeight="827" math="0" shadow="0">
      <root>
        <mxCell id="0" />
        <mxCell id="1" parent="0" />
        <mxCell id="ut-iU9elBqPr8QoLCNjq-3" value="" style="edgeStyle=orthogonalEdgeStyle;rounded=0;orthogonalLoop=1;jettySize=auto;html=1;" parent="1" source="ut-iU9elBqPr8QoLCNjq-1" target="ut-iU9elBqPr8QoLCNjq-2" edge="1">
          <mxGeometry relative="1" as="geometry" />
        </mxCell>
        <mxCell id="ut-iU9elBqPr8QoLCNjq-1" value="Challan is Printed/Scanned" style="rounded=0;whiteSpace=wrap;html=1;" parent="1" vertex="1">
          <mxGeometry x="50" y="30" width="120" height="60" as="geometry" />
        </mxCell>
        <mxCell id="ut-iU9elBqPr8QoLCNjq-12" value="" style="edgeStyle=orthogonalEdgeStyle;rounded=0;orthogonalLoop=1;jettySize=auto;html=1;" parent="1" source="ut-iU9elBqPr8QoLCNjq-2" target="ut-iU9elBqPr8QoLCNjq-11" edge="1">
          <mxGeometry relative="1" as="geometry" />
        </mxCell>
        <mxCell id="ut-iU9elBqPr8QoLCNjq-15" value="" style="edgeStyle=orthogonalEdgeStyle;rounded=0;orthogonalLoop=1;jettySize=auto;html=1;" parent="1" source="ut-iU9elBqPr8QoLCNjq-2" target="ut-iU9elBqPr8QoLCNjq-14" edge="1">
          <mxGeometry relative="1" as="geometry" />
        </mxCell>
        <mxCell id="ut-iU9elBqPr8QoLCNjq-2" value="is Present in DIspatch&amp;nbsp;" style="rhombus;whiteSpace=wrap;html=1;rounded=0;" parent="1" vertex="1">
          <mxGeometry x="60" y="140" width="100" height="100" as="geometry" />
        </mxCell>
        <mxCell id="ut-iU9elBqPr8QoLCNjq-55" style="edgeStyle=orthogonalEdgeStyle;rounded=0;orthogonalLoop=1;jettySize=auto;html=1;exitX=1;exitY=0.5;exitDx=0;exitDy=0;entryX=0.5;entryY=0;entryDx=0;entryDy=0;" parent="1" source="ut-iU9elBqPr8QoLCNjq-11" target="ut-iU9elBqPr8QoLCNjq-35" edge="1">
          <mxGeometry relative="1" as="geometry" />
        </mxCell>
        <mxCell id="ut-iU9elBqPr8QoLCNjq-11" value="Show a Pop Up Window for for warning and action:" style="whiteSpace=wrap;html=1;rounded=0;" parent="1" vertex="1">
          <mxGeometry x="304" y="107" width="160" height="60" as="geometry" />
        </mxCell>
        <mxCell id="ut-iU9elBqPr8QoLCNjq-13" value="Yes" style="text;html=1;align=center;verticalAlign=middle;resizable=0;points=[];autosize=1;strokeColor=none;fillColor=none;" parent="1" vertex="1">
          <mxGeometry x="160" y="167" width="40" height="30" as="geometry" />
        </mxCell>
        <mxCell id="ut-iU9elBqPr8QoLCNjq-14" value="Register the challan&lt;br&gt;in dispatch table" style="whiteSpace=wrap;html=1;rounded=0;" parent="1" vertex="1">
          <mxGeometry x="50" y="290" width="120" height="60" as="geometry" />
        </mxCell>
        <mxCell id="ut-iU9elBqPr8QoLCNjq-16" value="No" style="text;html=1;align=center;verticalAlign=middle;resizable=0;points=[];autosize=1;strokeColor=none;fillColor=none;" parent="1" vertex="1">
          <mxGeometry x="105" y="246" width="40" height="30" as="geometry" />
        </mxCell>
        <mxCell id="ut-iU9elBqPr8QoLCNjq-20" value="" style="edgeStyle=orthogonalEdgeStyle;rounded=0;orthogonalLoop=1;jettySize=auto;html=1;" parent="1" source="ut-iU9elBqPr8QoLCNjq-17" target="ut-iU9elBqPr8QoLCNjq-19" edge="1">
          <mxGeometry relative="1" as="geometry" />
        </mxCell>
        <mxCell id="ut-iU9elBqPr8QoLCNjq-17" value="1) Mark as Packed:&lt;br&gt;Request to Scan Invoice" style="whiteSpace=wrap;html=1;rounded=0;" parent="1" vertex="1">
          <mxGeometry x="245" y="435" width="150" height="60" as="geometry" />
        </mxCell>
        <mxCell id="ut-iU9elBqPr8QoLCNjq-22" value="" style="edgeStyle=orthogonalEdgeStyle;rounded=0;orthogonalLoop=1;jettySize=auto;html=1;" parent="1" source="ut-iU9elBqPr8QoLCNjq-19" target="ut-iU9elBqPr8QoLCNjq-21" edge="1">
          <mxGeometry relative="1" as="geometry" />
        </mxCell>
        <mxCell id="ut-iU9elBqPr8QoLCNjq-29" value="" style="edgeStyle=orthogonalEdgeStyle;rounded=0;orthogonalLoop=1;jettySize=auto;html=1;" parent="1" source="ut-iU9elBqPr8QoLCNjq-19" target="ut-iU9elBqPr8QoLCNjq-28" edge="1">
          <mxGeometry relative="1" as="geometry" />
        </mxCell>
        <mxCell id="ut-iU9elBqPr8QoLCNjq-19" value="Check &lt;br&gt;Correct Invoice" style="rhombus;whiteSpace=wrap;html=1;rounded=0;" parent="1" vertex="1">
          <mxGeometry x="205" y="545" width="80" height="80" as="geometry" />
        </mxCell>
        <mxCell id="ut-iU9elBqPr8QoLCNjq-21" value="Mark Order Status&amp;nbsp;&lt;br&gt;as Packed" style="whiteSpace=wrap;html=1;rounded=0;" parent="1" vertex="1">
          <mxGeometry x="334" y="555" width="120" height="60" as="geometry" />
        </mxCell>
        <mxCell id="ut-iU9elBqPr8QoLCNjq-23" value="Yes" style="text;html=1;align=center;verticalAlign=middle;resizable=0;points=[];autosize=1;strokeColor=none;fillColor=none;" parent="1" vertex="1">
          <mxGeometry x="289" y="559" width="40" height="30" as="geometry" />
        </mxCell>
        <mxCell id="ut-iU9elBqPr8QoLCNjq-28" value="Show Error for Incorrect Invoice" style="shape=parallelogram;perimeter=parallelogramPerimeter;whiteSpace=wrap;html=1;fixedSize=1;rounded=0;" parent="1" vertex="1">
          <mxGeometry x="40" y="555" width="120" height="60" as="geometry" />
        </mxCell>
        <mxCell id="ut-iU9elBqPr8QoLCNjq-30" value="No" style="text;html=1;align=center;verticalAlign=middle;resizable=0;points=[];autosize=1;strokeColor=none;fillColor=none;" parent="1" vertex="1">
          <mxGeometry x="168" y="562" width="40" height="30" as="geometry" />
        </mxCell>
        <mxCell id="ut-iU9elBqPr8QoLCNjq-56" style="edgeStyle=orthogonalEdgeStyle;rounded=0;orthogonalLoop=1;jettySize=auto;html=1;exitX=0;exitY=0.75;exitDx=0;exitDy=0;entryX=0.75;entryY=0;entryDx=0;entryDy=0;" parent="1" source="ut-iU9elBqPr8QoLCNjq-35" target="ut-iU9elBqPr8QoLCNjq-17" edge="1">
          <mxGeometry relative="1" as="geometry" />
        </mxCell>
        <mxCell id="ut-iU9elBqPr8QoLCNjq-59" style="edgeStyle=orthogonalEdgeStyle;rounded=0;orthogonalLoop=1;jettySize=auto;html=1;exitX=1;exitY=0.25;exitDx=0;exitDy=0;entryX=0.75;entryY=0;entryDx=0;entryDy=0;" parent="1" source="ut-iU9elBqPr8QoLCNjq-35" target="ut-iU9elBqPr8QoLCNjq-57" edge="1">
          <mxGeometry relative="1" as="geometry" />
        </mxCell>
        <mxCell id="ut-iU9elBqPr8QoLCNjq-60" style="edgeStyle=orthogonalEdgeStyle;rounded=0;orthogonalLoop=1;jettySize=auto;html=1;exitX=1;exitY=0.75;exitDx=0;exitDy=0;entryX=0.75;entryY=0;entryDx=0;entryDy=0;" parent="1" source="ut-iU9elBqPr8QoLCNjq-35" target="ut-iU9elBqPr8QoLCNjq-47" edge="1">
          <mxGeometry relative="1" as="geometry" />
        </mxCell>
        <mxCell id="ut-iU9elBqPr8QoLCNjq-35" value="Check Current&lt;br&gt;Order Status" style="shape=hexagon;perimeter=hexagonPerimeter2;whiteSpace=wrap;html=1;fixedSize=1;rounded=0;" parent="1" vertex="1">
          <mxGeometry x="520" y="260" width="120" height="80" as="geometry" />
        </mxCell>
        <mxCell id="ut-iU9elBqPr8QoLCNjq-41" value="If OS : Printed" style="text;html=1;align=center;verticalAlign=middle;resizable=0;points=[];autosize=1;strokeColor=none;fillColor=none;" parent="1" vertex="1">
          <mxGeometry x="234" y="415" width="100" height="30" as="geometry" />
        </mxCell>
        <mxCell id="ut-iU9elBqPr8QoLCNjq-42" value="&lt;div&gt;2) Mark as Dispatched&lt;/div&gt;" style="rounded=0;whiteSpace=wrap;html=1;" parent="1" vertex="1">
          <mxGeometry x="443" y="435" width="170" height="60" as="geometry" />
        </mxCell>
        <mxCell id="ut-iU9elBqPr8QoLCNjq-45" value="If OS : Packed" style="text;html=1;align=center;verticalAlign=middle;resizable=0;points=[];autosize=1;strokeColor=none;fillColor=none;" parent="1" vertex="1">
          <mxGeometry x="440" y="415" width="100" height="30" as="geometry" />
        </mxCell>
        <mxCell id="ut-iU9elBqPr8QoLCNjq-47" value="3) Mark as POD by&lt;br&gt;entering POD details only" style="rounded=0;whiteSpace=wrap;html=1;" parent="1" vertex="1">
          <mxGeometry x="661" y="435" width="170" height="60" as="geometry" />
        </mxCell>
        <mxCell id="ut-iU9elBqPr8QoLCNjq-48" value="If OS : Dispatched" style="text;html=1;align=center;verticalAlign=middle;resizable=0;points=[];autosize=1;strokeColor=none;fillColor=none;" parent="1" vertex="1">
          <mxGeometry x="650" y="414" width="120" height="30" as="geometry" />
        </mxCell>
        <mxCell id="ut-iU9elBqPr8QoLCNjq-50" style="edgeStyle=orthogonalEdgeStyle;rounded=0;orthogonalLoop=1;jettySize=auto;html=1;exitX=0.5;exitY=1;exitDx=0;exitDy=0;entryX=0.808;entryY=-0.011;entryDx=0;entryDy=0;entryPerimeter=0;" parent="1" source="ut-iU9elBqPr8QoLCNjq-35" target="ut-iU9elBqPr8QoLCNjq-42" edge="1">
          <mxGeometry relative="1" as="geometry" />
        </mxCell>
        <mxCell id="ut-iU9elBqPr8QoLCNjq-51" value="Sync Process&lt;br&gt;Dipsatch ~ mdis" style="ellipse;whiteSpace=wrap;html=1;aspect=fixed;" parent="1" vertex="1">
          <mxGeometry x="198" y="10" width="100" height="100" as="geometry" />
        </mxCell>
        <mxCell id="ut-iU9elBqPr8QoLCNjq-57" value="4) Direct Mark as dispatched/delivered with POD" style="rounded=0;whiteSpace=wrap;html=1;" parent="1" vertex="1">
          <mxGeometry x="880" y="435" width="160" height="60" as="geometry" />
        </mxCell>
      </root>
    </mxGraphModel>
  </diagram>
</mxfile>
